<svg xmlns="http://www.w3.org/2000/svg" version="1.1" xmlns:xlink="http://www.w3.org/1999/xlink"
    width="16" height="16" x="0" y="0" viewBox="0 0 682.667 682.667"
    style="enable-background:new 0 0 512 512" xml:space="preserve" class=""><g><defs><clipPath id="a" clipPathUnits="userSpaceOnUse"><path d="M0 512h512V0H0Z" fill="#eab308" opacity="1" data-original="#000000"></path></clipPath></defs><g clip-path="url(#a)" transform="matrix(1.33333 0 0 -1.33333 0 682.667)"><path d="M0 0c27.771.661 49.999 17.407 52.038 33.551 1.866 14.793-5.629 28.868-17.489 28.868H19.586" style="stroke-width:15.118;stroke-linecap:round;stroke-linejoin:round;stroke-miterlimit:10;stroke-dasharray:none;stroke-opacity:1" transform="translate(294.67 265.853)" fill="none" stroke="#eab308" stroke-width="15.118" stroke-linecap="round" stroke-linejoin="round" stroke-miterlimit="10" stroke-dasharray="none" stroke-opacity="" data-original="#000000" class="" opacity="1"></path><path d="M0 0c-26.967-24.675 9.649-47.31-12.119-65.953" style="stroke-width:15.118;stroke-linecap:round;stroke-linejoin:round;stroke-miterlimit:10;stroke-dasharray:none;stroke-opacity:1" transform="translate(270.374 455.15)" fill="none" stroke="#eab308" stroke-width="15.118" stroke-linecap="round" stroke-linejoin="round" stroke-miterlimit="10" stroke-dasharray="none" stroke-opacity="" data-original="#000000" class="" opacity="1"></path><path d="M0 0h201.231" style="stroke-width:15.118;stroke-linecap:round;stroke-linejoin:round;stroke-miterlimit:10;stroke-dasharray:none;stroke-opacity:1" transform="translate(123.65 179.879)" fill="none" stroke="#eab308" stroke-width="15.118" stroke-linecap="round" stroke-linejoin="round" stroke-miterlimit="10" stroke-dasharray="none" stroke-opacity="" data-original="#000000" class="" opacity="1"></path><path d="M0 0h254.447" style="stroke-width:15.118;stroke-linecap:round;stroke-linejoin:round;stroke-miterlimit:10;stroke-dasharray:none;stroke-opacity:1" transform="translate(92.175 125.416)" fill="none" stroke="#eab308" stroke-width="15.118" stroke-linecap="round" stroke-linejoin="round" stroke-miterlimit="10" stroke-dasharray="none" stroke-opacity="" data-original="#000000" class="" opacity="1"></path><path d="M0 0c-26.967-24.675 9.649-47.31-12.119-65.953" style="stroke-width:15.118;stroke-linecap:round;stroke-linejoin:round;stroke-miterlimit:10;stroke-dasharray:none;stroke-opacity:1" transform="translate(235.193 455.15)" fill="none" stroke="#eab308" stroke-width="15.118" stroke-linecap="round" stroke-linejoin="round" stroke-miterlimit="10" stroke-dasharray="none" stroke-opacity="" data-original="#000000" class="" opacity="1"></path><path d="M0 0h64.731c6.779 0 9.65-4.74 9.219-11.547-1.407-35.705-21.854-82.7-49.913-98.642m-84.261 0c-26.823 15.942-43.652 62.908-42.273 98.613l.115 2.642C-102.21-4.021-98.247 0-93.623 0h58.528" style="stroke-width:15.118;stroke-linecap:round;stroke-linejoin:round;stroke-miterlimit:10;stroke-dasharray:none;stroke-opacity:1" transform="translate(240.88 343.927)" fill="none" stroke="#eab308" stroke-width="15.118" stroke-linecap="round" stroke-linejoin="round" stroke-miterlimit="10" stroke-dasharray="none" stroke-opacity="" data-original="#000000" class="" opacity="1"></path><path d="m0 0-12.694-246.288c-.603-11.548 8.357-20.998 19.902-20.998h342.7c11.545 0 21.482 9.45 22.084 20.998l21.396 415.363c.603 11.548-8.357 20.998-19.902 20.998h-342.7c-11.545 0-21.481-9.45-22.085-20.998L2.067 40.56" style="stroke-width:15.118;stroke-linecap:round;stroke-linejoin:round;stroke-miterlimit:10;stroke-dasharray:none;stroke-opacity:1" transform="translate(40.223 314.427)" fill="none" stroke="#eab308" stroke-width="15.118" stroke-linecap="round" stroke-linejoin="round" stroke-miterlimit="10" stroke-dasharray="none" stroke-opacity="" data-original="#000000" class="" opacity="1"></path><path d="M0 0h39.804c20.189 0 34.634 16.517 32.107 36.682L26.967 397.813c-.719 5.716-2.7 11.116-5.629 15.942 0-.086-.029-.172-.029-.258" style="stroke-width:15.118;stroke-linecap:round;stroke-linejoin:round;stroke-miterlimit:10;stroke-dasharray:none;stroke-opacity:1" transform="translate(412.302 70.005)" fill="none" stroke="#eab308" stroke-width="15.118" stroke-linecap="round" stroke-linejoin="round" stroke-miterlimit="10" stroke-dasharray="none" stroke-opacity="" data-original="#000000" class="" opacity="1"></path><path d="M0 0h162.777" style="stroke-width:15.118;stroke-linecap:round;stroke-linejoin:round;stroke-miterlimit:10;stroke-dasharray:none;stroke-opacity:1" transform="translate(142.892 233.738)" fill="none" stroke="#eab308" stroke-width="15.118" stroke-linecap="round" stroke-linejoin="round" stroke-miterlimit="10" stroke-dasharray="none" stroke-opacity="" data-original="#000000" class="" opacity="1"></path><path d="M0 0h63.784v-31.971c0-4.223-3.446-7.67-7.668-7.67H7.639C3.446-39.641 0-36.194 0-31.971z" style="stroke-width:15.118;stroke-linecap:round;stroke-linejoin:round;stroke-miterlimit:10;stroke-dasharray:none;stroke-opacity:1" transform="translate(61.216 47.14)" fill="none" stroke="#eab308" stroke-width="15.118" stroke-linecap="round" stroke-linejoin="round" stroke-miterlimit="10" stroke-dasharray="none" stroke-opacity="" data-original="#000000" class="" opacity="1"></path><path d="M0 0h63.784v-31.971c0-4.223-3.446-7.67-7.639-7.67H7.668C3.446-39.641 0-36.194 0-31.971z" style="stroke-width:15.118;stroke-linecap:round;stroke-linejoin:round;stroke-miterlimit:10;stroke-dasharray:none;stroke-opacity:1" transform="translate(316.496 47.14)" fill="none" stroke="#eab308" stroke-width="15.118" stroke-linecap="round" stroke-linejoin="round" stroke-miterlimit="10" stroke-dasharray="none" stroke-opacity="" data-original="#000000" class="" opacity="1"></path></g></g></svg>