<svg xmlns="http://www.w3.org/2000/svg" version="1.1" xmlns:xlink="http://www.w3.org/1999/xlink"
    width="16" height="16" x="0" y="0" viewBox="0 0 64 64"
    style="enable-background:new 0 0 512 512" xml:space="preserve" class=""><g><path d="m59.28 13.54-.15-.56a11 11 0 0 0-13.54-7.76l-5 1.7a7.022 7.022 0 0 0-8.53-4.83l-1.93.52a7 7 0 0 0-4.94 8.58l.24.9-.96.32a3.013 3.013 0 0 0-2.12 3.68l3.42 12.76-3.98 2.76a12.942 12.942 0 0 0-5.45 7.93C13.58 40.23 12 41.47 12 43a.41.41 0 0 0 .01.11c0 .04.45 4.09.9 8.14s.9 8.08.9 8.08A3 3 0 0 0 16.79 62h8.42a3 3 0 0 0 2.98-2.67l1.8-16.22A1.042 1.042 0 0 0 30 43c0-1.43-1.38-2.61-3.81-3.33a7 7 0 0 1 2.07-3.53 2.014 2.014 0 0 0 .83.33 2.452 2.452 0 0 0 .27.02 2 2 0 0 0 1.73-1l2.81-4.87 16.17-3.33a11.008 11.008 0 0 0 9.21-13.75zM27.61 6.88a4.95 4.95 0 0 1 3.04-2.33l1.93-.52a5.009 5.009 0 0 1 6.12 3.54l-1.89.64-.04-.13a3 3 0 0 0-3.67-2.12l-1.92.52a2.982 2.982 0 0 0-1.83 1.39 3.023 3.023 0 0 0-.31 2.28l.18.65-1.89.64-.21-.77a4.966 4.966 0 0 1 .49-3.79zm7.3 1.98-3.79 1.29-.14-.52a.988.988 0 0 1 .1-.75.949.949 0 0 1 .61-.46l1.93-.53a1.028 1.028 0 0 1 .75.1 1.017 1.017 0 0 1 .47.61zM26.2 59.11a.989.989 0 0 1-.99.89h-8.42a.989.989 0 0 1-.99-.89l-1.49-13.35A16.7 16.7 0 0 0 21 47a16.88 16.88 0 0 0 6.69-1.23zM24 41.28V43h2v-1.29c1.48.5 2 1.09 1.99 1.33-.07.34-.74.83-1.93 1.24A16.163 16.163 0 0 1 21 45c-4.3 0-6.82-1.26-6.99-1.99l-.01-.02c.02-.27.65-.83 2.04-1.29-.01.24-.04.48-.04.72V43h2v-.58a11 11 0 0 1 4.91-9.16l3.41-2.36.93 3.48a8.993 8.993 0 0 0-3.25 6.9zm32.13-19.89a9 9 0 0 1-6.39 3.93l-16.25 3.34a2.025 2.025 0 0 0-1.32.96l-2.82 4.87-5.06-18.92a1.008 1.008 0 0 1 .77-1.24l21.11-7.2a9.482 9.482 0 0 1 2.35-.31 9.023 9.023 0 0 1 8.68 6.68l.15.56a8.969 8.969 0 0 1-1.22 7.33z" fill="#eab308" opacity="1" data-original="#000000" class=""></path><path d="m17.431 53.107 1.988-.22.555 5.016-1.988.22zM16.99 49.122l1.988-.22.219 1.979-1.988.22z" fill="#eab308" opacity="1" data-original="#000000" class=""></path></g></svg>