<svg xmlns="http://www.w3.org/2000/svg" version="1.1" xmlns:xlink="http://www.w3.org/1999/xlink"
    width="16" height="16" x="0" y="0" viewBox="0 0 64 64"
    style="enable-background:new 0 0 512 512" xml:space="preserve" class=""><g><g data-name="Layer 16"><path d="M61 54H39.722a21.215 21.215 0 0 0 7.685-6.128 16.426 16.426 0 0 0 12.777-9A17.309 17.309 0 0 0 62 31.173a7.176 7.176 0 0 0-9.061-6.921l-1.682.459c-.09-.626-.163-1.24-.272-1.879A1 1 0 0 0 50 22H8a1 1 0 0 0-.985.832 57.438 57.438 0 0 0-.828 13.686A20.813 20.813 0 0 0 8.159 44H3a1 1 0 0 0-1 1 10.99 10.99 0 0 0 4.7 9H3a1 1 0 0 0-1 1 7.008 7.008 0 0 0 7 7h46a7.008 7.008 0 0 0 7-7 1 1 0 0 0-1-1Zm-43.2-.888L5.944 46H9a9.013 9.013 0 0 1 8.8 7.112ZM29 46h3.056L20.2 53.112A9.013 9.013 0 0 1 29 46Zm-6-.208a11.1 11.1 0 0 0-3 2.9V37.351a12.252 12.252 0 0 1 3 8.049Zm-5 2.9a11.1 11.1 0 0 0-3-2.9V45.4a12.252 12.252 0 0 1 3-8.052Zm15.677-1.332A9.01 9.01 0 0 1 25 54h-2.39Zm18.135-10.842a48.491 48.491 0 0 0 .042-5.673l2.067-.752a1.533 1.533 0 0 1 .528-.093A1.552 1.552 0 0 1 56 31.551a10.434 10.434 0 0 1-4.841 8.83 20.662 20.662 0 0 0 .653-3.863Zm1.653-10.336A5.175 5.175 0 0 1 60 31.173a15.3 15.3 0 0 1-1.6 6.8 14.435 14.435 0 0 1-9.405 7.573A20.922 20.922 0 0 0 50.21 43.1 12.416 12.416 0 0 0 58 31.551a3.55 3.55 0 0 0-4.764-3.337l-1.518.552c-.055-.682-.1-1.358-.184-2.057ZM8.849 24h40.3a54.486 54.486 0 0 1 .667 12.374 19.063 19.063 0 0 1-18.482 17.6A10.989 10.989 0 0 0 36 45a1 1 0 0 0-1-1h-6a10.92 10.92 0 0 0-4.035.777 14.235 14.235 0 0 0-5.34-10.558 1 1 0 0 0-1.25 0 14.235 14.235 0 0 0-5.34 10.558 10.879 10.879 0 0 0-2.57-.668 18.822 18.822 0 0 1-2.283-7.735A54.486 54.486 0 0 1 8.849 24ZM4.323 47.36 15.39 54H13a9.01 9.01 0 0 1-8.677-6.64ZM55 60H9a5.008 5.008 0 0 1-4.9-4h55.8a5.008 5.008 0 0 1-4.9 4ZM39.212 12.776l-1.318.659a3.427 3.427 0 0 0 0 6.13l.658.33a1 1 0 1 0 .894-1.79l-.658-.329a1.427 1.427 0 0 1 0-2.552l1.318-.66a3.426 3.426 0 0 0 0-6.129l-1.318-.658a1.428 1.428 0 0 1 0-2.553L41.447 3.9a1 1 0 1 0-.894-1.79L37.9 3.435a3.427 3.427 0 0 0 0 6.13l1.318.659a1.427 1.427 0 0 1 0 2.552ZM30.212 12.776l-1.318.659a3.427 3.427 0 0 0 0 6.13l.658.33a1 1 0 0 0 .894-1.79l-.658-.329a1.427 1.427 0 0 1 0-2.552l1.318-.66a3.426 3.426 0 0 0 0-6.129l-1.318-.658a1.428 1.428 0 0 1 0-2.553L32.447 3.9a1 1 0 0 0-.894-1.79L28.9 3.435a3.427 3.427 0 0 0 0 6.13l1.318.659a1.427 1.427 0 0 1 0 2.552ZM21.212 12.776l-1.318.659a3.427 3.427 0 0 0 0 6.13l.658.33a1 1 0 0 0 .894-1.79l-.658-.329a1.427 1.427 0 0 1 0-2.552l1.318-.66a3.426 3.426 0 0 0 0-6.129l-1.318-.658a1.428 1.428 0 0 1 0-2.553L23.447 3.9a1 1 0 1 0-.894-1.79L19.9 3.435a3.427 3.427 0 0 0 0 6.13l1.318.659a1.427 1.427 0 0 1 0 2.552Z" fill="#eab308" opacity="1" data-original="#000000" class=""></path><path d="M10.1 40.318a1 1 0 0 0 1.9-.636 16.011 16.011 0 0 1-.722-3.257c-.105-.919-.168-1.9-.188-2.925a.971.971 0 0 1 .363-.776 1.009 1.009 0 0 1 .861-.2l2.328.524a20.845 20.845 0 0 0 8.728.1l1.911-.382a18.921 18.921 0 0 1 7.452 0l1.911.382a20.877 20.877 0 0 0 8.728-.1l2.328-.524a1.01 1.01 0 0 1 .861.2.971.971 0 0 1 .363.776 31.274 31.274 0 0 1-.188 2.924A16.238 16.238 0 0 1 38.5 48.73a1 1 0 1 0 .994 1.735 18.463 18.463 0 0 0 9.219-13.814c.112-.98.18-2.027.2-3.112a2.961 2.961 0 0 0-1.1-2.364 2.994 2.994 0 0 0-2.564-.607l-2.328.524a18.887 18.887 0 0 1-7.9.094l-1.903-.386a20.873 20.873 0 0 0-8.236 0l-1.911.382a18.887 18.887 0 0 1-7.9-.094l-2.328-.524a3 3 0 0 0-3.663 2.971c.021 1.085.089 2.132.2 3.113a18.045 18.045 0 0 0 .82 3.67Z" fill="#eab308" opacity="1" data-original="#000000" class=""></path></g></g></svg>