<svg xmlns="http://www.w3.org/2000/svg" version="1.1" xmlns:xlink="http://www.w3.org/1999/xlink"
    width="16" height="16" x="0" y="0" viewBox="0 0 1707 1707"
    style="enable-background:new 0 0 512 512" xml:space="preserve" fill-rule="evenodd" class=""><g><path d="M854 1549c-354 0-643-288-643-643 0-354 289-643 643-643 355 0 644 289 644 643 0 355-289 643-644 643zm0-1246c-332 0-603 271-603 603 0 333 271 603 603 603 333 0 604-270 604-603 0-332-271-603-604-603z" fill="#eab308" opacity="1" data-original="#000000" class=""></path><path d="M854 1459c-304 0-552-248-552-553 0-304 248-552 552-552 305 0 553 248 553 552 0 305-248 553-553 553zm0-1065c-282 0-512 230-512 512 0 283 230 513 512 513 283 0 513-230 513-513 0-282-230-512-513-512z" fill="#eab308" opacity="1" data-original="#000000" class=""></path><path d="M854 1368c-254 0-461-207-461-462 0-254 207-461 461-461 255 0 462 207 462 461 0 255-207 462-462 462zm0-883c-232 0-421 189-421 421 0 233 189 422 421 422 233 0 422-189 422-422 0-232-189-421-422-421z" fill="#eab308" opacity="1" data-original="#000000" class=""></path><path d="M827 745c-45 0-98-23-158-70-60-45-105-97-107-99-8-8-7-21 2-28 8-8 21-7 28 2 47 54 187 187 267 148 29-15 50-33 70-51 54-48 105-93 275-37 11 3 16 14 13 25-4 10-15 16-25 13-149-49-186-16-236 29-21 19-45 40-80 57-15 7-31 11-49 11zM627 1305c-4 0-9-2-13-5-8-7-9-20-2-28s177-202 300-142c34 17 58 39 79 57 35 32 63 56 127 53 11-1 20 8 21 19 0 11-8 20-19 21-80 4-118-30-155-63-21-18-42-36-71-51-79-38-208 82-252 132-4 5-9 7-15 7z" fill="#eab308" opacity="1" data-original="#000000" class=""></path><path d="M723 897c-150 0-225-254-229-266-3-10 3-22 14-25 10-3 22 3 25 14 1 3 79 267 213 234 54-13 94-33 128-51 65-33 121-61 232-32 47 13 79 23 100 30 18 6 32 11 37 10 3 0 10-7 19-16 3-2 5-5 8-7 8-8 21-8 28 0 8 8 7 21-1 29l-7 7c-34 33-43 33-97 15-22-7-51-17-97-29-96-26-141-3-204 29-36 19-78 40-136 54-12 3-23 4-33 4zM454 1112c-4 0-8-1-12-4-9-6-11-19-4-27 48-65 151-170 295-142 32 7 60 13 85 18 122 26 168 36 332 1 58-12 95-22 122-29 7-2 12-3 17-4 11-3 22 3 25 14 2 11-4 22-15 24-5 2-10 3-16 5-27 7-66 17-125 30-172 36-224 25-349-2-24-5-52-11-84-17-122-25-212 68-255 125-4 6-10 8-16 8zM313 294H20c-11 0-20-9-20-20s9-20 20-20h293c11 0 20 9 20 20s-9 20-20 20z" fill="#eab308" opacity="1" data-original="#000000" class=""></path><path d="M313 294c-11 0-20-9-20-20s9-20 20-20c52 0 95-42 95-94s-43-94-95-94c-33 0-64 17-81 45-5 10-18 13-27 7-10-6-13-18-7-28 24-40 68-64 115-64 74 0 135 60 135 134s-61 134-135 134zM1572 1665h-293c-11 0-20-9-20-20s9-20 20-20h293c11 0 20 9 20 20s-9 20-20 20z" fill="#eab308" opacity="1" data-original="#000000" class=""></path><path d="M1572 1665c-11 0-20-9-20-20s9-20 20-20c52 0 95-42 95-94s-43-95-95-95c-33 0-64 18-81 46-5 9-18 12-27 7-9-6-12-18-7-28 24-40 68-65 115-65 74 0 135 61 135 135s-61 134-135 134zM447 1681H154c-11 0-20-9-20-20s9-20 20-20h293c11 0 20 9 20 20s-9 20-20 20z" fill="#eab308" opacity="1" data-original="#000000" class=""></path><path d="M154 1681c-74 0-134-60-134-134s60-135 134-135c47 0 91 25 115 65 6 10 3 22-7 28-9 5-21 2-27-7-17-28-48-46-81-46-52 0-94 43-94 95s42 94 94 94c11 0 20 9 20 20s-9 20-20 20z" fill="#eab308" opacity="1" data-original="#000000" class=""></path></g></svg>