<svg xmlns="http://www.w3.org/2000/svg" version="1.1" xmlns:xlink="http://www.w3.org/1999/xlink"
    width="24" height="24" x="0" y="0" viewBox="0 0 100 100"
    style="enable-background:new 0 0 512 512" xml:space="preserve" class=""><g><path d="M50 88.29c-1.1 0-2-.9-2-2V34.6c0-1.1.9-2 2-2s2 .9 2 2v51.69c0 1.1-.9 2-2 2z" fill="#ffffff" opacity="1" data-original="#000000"></path><circle cx="50" cy="16.45" r="2" fill-rule="evenodd" clip-rule="evenodd" fill="#ffffff" opacity="1" data-original="#000000"></circle><circle cx="50" cy="25.52" r="2" fill-rule="evenodd" clip-rule="evenodd" fill="#ffffff" opacity="1" data-original="#000000"></circle><path d="M50 88.29c-.46 0-.92-.16-1.29-.48L33.08 74.53c-.84-.72-.94-1.98-.23-2.82s1.98-.94 2.82-.23L50 83.66l14.33-12.18c.84-.71 2.1-.61 2.82.23s.61 2.1-.23 2.82L51.29 87.81c-.37.32-.83.48-1.29.48z" fill="#ffffff" opacity="1" data-original="#000000"></path></g></svg>