<svg xmlns="http://www.w3.org/2000/svg" version="1.1" xmlns:xlink="http://www.w3.org/1999/xlink"
    width="16" height="16" x="0" y="0" viewBox="0 0 64 64" style="enable-background:new 0 0 512 512"
    xml:space="preserve" class=""><g><path d="M60 34c-8.046.002-21.992-.001-30 0h-4c-1.742.108-.776 3.01-.71 4.128a18.104 18.104 0 0 0 5.17 9.777c-5.357 3.424-10.635 4.02-14.969 1.653a5.06 5.06 0 0 0-4.067-.35l-1.318.47a2.97 2.97 0 0 1-3.784-3.782l.47-1.32a5.069 5.069 0 0 0-.354-4.076C-.764 28.632 20.637 7.228 32.508 14.442a5.06 5.06 0 0 0 4.068.35l1.318-.47a2.97 2.97 0 0 1 3.784 3.783l-.47 1.32a5.067 5.067 0 0 0 .355 4.076 11.757 11.757 0 0 1 1.316 7.366 1 1 0 0 0 1.982.267 13.702 13.702 0 0 0-1.539-8.585c-.747-1.234-.227-2.594.24-3.775a5 5 0 0 0-6.34-6.336l-1.317.47a3.06 3.06 0 0 1-2.446-.225C19.878 4.488-3.51 27.871 4.678 41.451c.746 1.234.227 2.595-.24 3.776a4.971 4.971 0 0 0 6.339 6.335l1.318-.47a3.05 3.05 0 0 1 2.446.225c5.827 3.048 11.67 1.744 17.5-2.072 9.964 7.958 25.63 2.56 28.459-10.011a1 1 0 0 0-1.944-.469C53.862 56.551 28.567 54.165 27.031 36h2.004c.483 9.737 11.561 16.06 20.222 11.524h.001A13.918 13.918 0 0 0 56.965 36H60a1 1 0 0 0 0-2zM47.203 46.233a11.994 11.994 0 0 1-8.646-.103L43 37.238l4.443 8.892c-.081.032-.159.073-.24.103zM31.041 36h10.342l-4.611 9.23A11.9 11.9 0 0 1 31.04 36zm18.187 9.23L44.618 36h10.341a11.9 11.9 0 0 1-5.73 9.23z" fill="#eab308" opacity="1" data-original="#000000" class=""></path><path d="M39.648 31.984c2.608.608 1.096-9.397-1.196-7.933a1 1 0 0 0-.4 1.357 8.056 8.056 0 0 1 .789 5.415 1 1 0 0 0 .806 1.161zM15.157 21.744a1 1 0 0 0-1.414 0c-2.316 2.317-9.56 10.448-5.552 17.805a1 1 0 1 0 1.756-.957c-3.344-6.138 3.143-13.365 5.21-15.434a1 1 0 0 0 0-1.414z" fill="#eab308" opacity="1" data-original="#000000" class=""></path></g></svg>